<?xml version="1.0" standalone="no"?>
<!DOCTYPE svg PUBLIC "-//W3C//DTD SVG 20010904//EN"
 "http://www.w3.org/TR/2001/REC-SVG-20010904/DTD/svg10.dtd">
<svg version="1.0" xmlns="http://www.w3.org/2000/svg"
 width="400.000000pt" height="400.000000pt" viewBox="0 0 400.000000 400.000000"
 preserveAspectRatio="xMidYMid meet">

<g transform="translate(0.000000,400.000000) scale(0.100000,-0.100000)"
fill="#000000" stroke="none">
<path d="M1733 3785 c-91 -14 -252 -52 -272 -64 -10 -6 36 -127 189 -497 111
-269 222 -536 246 -592 24 -57 44 -110 44 -118 0 -8 -10 -14 -25 -14 -37 0
-132 -36 -186 -69 l-47 -29 -133 322 c-287 696 -359 867 -364 877 -8 11 -67
-22 -200 -113 -112 -76 -145 -102 -145 -115 0 -4 125 -133 278 -286 l279 -278
-100 -100 -100 -100 -284 283 -283 283 -25 -30 c-86 -105 -213 -311 -199 -324
5 -5 56 -27 114 -51 58 -23 146 -59 195 -80 50 -21 268 -111 485 -200 217 -90
396 -164 398 -165 1 -1 -15 -36 -37 -76 -21 -41 -45 -100 -52 -132 -7 -33 -17
-56 -23 -54 -6 3 -155 64 -331 137 -751 311 -850 352 -859 353 -20 4 -86 -281
-86 -370 l0 -33 398 0 397 0 0 -145 0 -145 -399 0 -399 0 7 -73 c7 -73 46
-260 65 -309 9 -24 14 -26 33 -19 20 8 1142 473 1176 488 7 3 12 -3 12 -16 0
-36 40 -143 72 -194 17 -26 29 -49 27 -51 -4 -4 -265 -113 -893 -372 -164 -68
-301 -126 -304 -128 -12 -13 205 -346 226 -346 4 0 133 126 287 280 l281 281
100 -100 100 -100 -278 -278 c-153 -153 -278 -283 -278 -289 0 -20 311 -235
339 -234 3 0 116 267 250 593 134 325 247 596 251 600 4 5 36 -8 71 -27 35
-19 91 -42 123 -50 32 -9 61 -18 64 -20 5 -6 -52 -145 -313 -774 -96 -233
-173 -427 -170 -432 10 -17 308 -79 383 -80 l22 0 0 398 0 399 145 0 145 0 0
-398 0 -399 23 0 c75 0 366 66 373 84 3 7 -20 71 -50 142 -29 71 -113 273
-186 449 -72 176 -159 385 -192 463 -33 79 -58 145 -56 147 2 1 37 12 78 24
41 13 96 36 123 52 26 16 51 29 55 29 4 0 25 -44 46 -98 22 -53 78 -191 126
-307 48 -115 140 -338 205 -495 65 -157 119 -288 122 -292 9 -16 192 95 304
183 l51 41 -288 289 c-159 159 -284 289 -279 289 12 0 131 112 169 159 l28 34
284 -284 285 -284 31 35 c70 82 208 303 196 315 -4 4 -273 117 -600 252 -326
135 -594 247 -596 248 -2 2 11 24 28 51 24 39 55 121 76 200 1 7 139 -44 341
-128 186 -77 457 -189 602 -249 145 -60 266 -108 267 -106 2 2 14 46 28 98 22
84 33 143 50 272 l5 37 -402 0 -402 0 0 145 0 145 402 0 401 0 -5 43 c-8 75
-43 250 -61 309 l-17 57 -590 -244 c-324 -135 -598 -247 -607 -251 -14 -4 -18
0 -18 19 0 36 -37 136 -70 189 -35 57 -58 40 200 146 107 44 317 131 465 192
149 62 306 127 350 145 142 59 155 65 155 75 0 29 -209 340 -228 340 -4 0
-133 -126 -288 -281 l-280 -280 -100 98 -100 98 284 286 284 286 -86 65 c-96
72 -237 158 -257 158 -9 0 -105 -221 -258 -593 -134 -325 -246 -595 -248 -599
-2 -3 -29 9 -61 28 -55 34 -138 64 -173 64 -29 0 -30 15 -3 81 65 161 418
1011 443 1069 l29 65 -71 22 c-64 20 -286 63 -326 63 -14 0 -16 -38 -16 -401
l0 -401 -143 -1 -142 -2 0 403 0 402 -22 -1 c-13 -1 -60 -7 -105 -14z"/>
</g>
</svg>
